{
  "version": "1.1.6",
  "modules": [
    {
      "id": 55,
      "plugin": "LindenbergResearch",
      "version": "1.3.3",
      "model": "BlankPanel_Wood",
      "params": [],
      "rightModuleId": 86,
      "gestaltID": 1,
      "gradient": false,
      "patina": false,
      "patina_i_x": false,
      "patina_i_y": true,
      "patina_a_x": 107.725967,
      "patina_a_y": 283.338226,
      "overlay": false,
      "overlay_r": 0.841094434,
      "overlay_g": 0.995137513,
      "overlay_b": 0.959439516,
      "overlay_a": 0.25018096,
      "AGED": true,
      "screws": true,
      "logo": true,
      "pos": [
        0,
        0
      ]
    },
    {
      "id": 58,
      "plugin": "LindenbergResearch",
      "version": "1.3.3",
      "model": "BlankPanel_Wood",
      "params": [],
      "leftModuleId": 87,
      "gestaltID": 1,
      "gradient": false,
      "patina": false,
      "patina_i_x": false,
      "patina_i_y": false,
      "patina_a_x": 21.1649952,
      "patina_a_y": 188.322418,
      "overlay": false,
      "overlay_r": 0.59220314,
      "overlay_g": 0.990865767,
      "overlay_b": 0.641492367,
      "overlay_a": 0.128418162,
      "AGED": true,
      "screws": true,
      "logo": true,
      "pos": [
        92,
        0
      ]
    },
    {
      "id": 85,
      "plugin": "Core",
      "version": "1.1.6",
      "model": "MIDIToCVInterface",
      "params": [],
      "leftModuleId": 86,
      "rightModuleId": 117,
      "data": {
        "channels": 1,
        "polyMode": 0,
        "clockDivision": 24,
        "lastPitch": 8192,
        "lastMod": 0,
        "midi": {
          "driver": -11,
          "deviceName": "QWERTY keyboard (US)",
          "channel": -1
        }
      },
      "pos": [
        12,
        0
      ]
    },
    {
      "id": 86,
      "plugin": "Core",
      "version": "1.1.6",
      "model": "CV-MIDI",
      "params": [],
      "leftModuleId": 55,
      "rightModuleId": 85,
      "data": {
        "midi": {
          "driver": 4,
          "deviceName": "LoopBe Internal MIDI 1",
          "channel": 0
        }
      },
      "pos": [
        4,
        0
      ]
    },
    {
      "id": 87,
      "plugin": "Core",
      "version": "1.1.6",
      "model": "AudioInterface",
      "params": [],
      "rightModuleId": 58,
      "data": {
        "audio": {
          "driver": 6,
          "deviceName": "Speaker (Realtek(R) Audio)",
          "offset": 0,
          "maxChannels": 8,
          "sampleRate": 44100,
          "blockSize": 256
        }
      },
      "pos": [
        82,
        0
      ]
    },
    {
      "id": 95,
      "plugin": "LindenbergResearch",
      "version": "1.3.3",
      "model": "BlankPanel_Wood",
      "params": [],
      "leftModuleId": 123,
      "gestaltID": 1,
      "gradient": false,
      "patina": false,
      "patina_i_x": false,
      "patina_i_y": false,
      "patina_a_x": 21.1649952,
      "patina_a_y": 188.322418,
      "overlay": false,
      "overlay_r": 0.778620362,
      "overlay_g": 0.913339436,
      "overlay_b": 0.328829408,
      "overlay_a": 0.392555505,
      "AGED": true,
      "screws": true,
      "logo": true,
      "pos": [
        92,
        1
      ]
    },
    {
      "id": 96,
      "plugin": "LindenbergResearch",
      "version": "1.3.3",
      "model": "BlankPanel_Wood",
      "params": [],
      "rightModuleId": 126,
      "gestaltID": 1,
      "gradient": false,
      "patina": false,
      "patina_i_x": false,
      "patina_i_y": true,
      "patina_a_x": 107.725967,
      "patina_a_y": 283.338226,
      "overlay": false,
      "overlay_r": 0.587757528,
      "overlay_g": 0.136420906,
      "overlay_b": 0.967722058,
      "overlay_a": 0.362290263,
      "AGED": true,
      "screws": true,
      "logo": true,
      "pos": [
        0,
        1
      ]
    },
    {
      "id": 117,
      "plugin": "LomasModules",
      "version": "1.0.9",
      "model": "AdvancedSampler",
      "params": [
        {
          "id": 0,
          "value": 0.194999978
        },
        {
          "id": 1,
          "value": 1.01999998
        },
        {
          "id": 2,
          "value": 0.0
        },
        {
          "id": 3,
          "value": 1.0
        },
        {
          "id": 4,
          "value": 0.0
        },
        {
          "id": 5,
          "value": 1.0
        },
        {
          "id": 6,
          "value": 0.0
        },
        {
          "id": 7,
          "value": 0.0
        },
        {
          "id": 8,
          "value": 0.0
        },
        {
          "id": 9,
          "value": 0.0
        }
      ],
      "leftModuleId": 85,
      "rightModuleId": 118,
      "data": {
        "directory": "C:\\Users\\bwiec\\Documents\\Samples\\YouTube",
        "loop": false,
        "hold_envelope": false,
        "playing": false,
        "read_position": 0.0,
        "interpolation_mode": 2,
        "slice": false
      },
      "pos": [
        20,
        0
      ]
    },
    {
      "id": 118,
      "plugin": "LomasModules",
      "version": "1.0.9",
      "model": "AdvancedSampler",
      "params": [
        {
          "id": 0,
          "value": 0.0
        },
        {
          "id": 1,
          "value": 0.732000053
        },
        {
          "id": 2,
          "value": 0.0
        },
        {
          "id": 3,
          "value": 1.0
        },
        {
          "id": 4,
          "value": 0.0
        },
        {
          "id": 5,
          "value": 1.0
        },
        {
          "id": 6,
          "value": 0.0
        },
        {
          "id": 7,
          "value": 0.0
        },
        {
          "id": 8,
          "value": 0.0
        },
        {
          "id": 9,
          "value": 0.0
        }
      ],
      "leftModuleId": 117,
      "rightModuleId": 120,
      "data": {
        "directory": "C:\\Users\\bwiec\\Documents\\Samples\\YouTube",
        "loop": false,
        "hold_envelope": false,
        "playing": false,
        "read_position": 0.0,
        "interpolation_mode": 2,
        "slice": false
      },
      "pos": [
        30,
        0
      ]
    },
    {
      "id": 119,
      "plugin": "LomasModules",
      "version": "1.0.9",
      "model": "AdvancedSampler",
      "params": [
        {
          "id": 0,
          "value": 0.420000017
        },
        {
          "id": 1,
          "value": 0.0
        },
        {
          "id": 2,
          "value": 0.0
        },
        {
          "id": 3,
          "value": 1.0
        },
        {
          "id": 4,
          "value": 0.0
        },
        {
          "id": 5,
          "value": 1.0
        },
        {
          "id": 6,
          "value": 0.0
        },
        {
          "id": 7,
          "value": 0.0
        },
        {
          "id": 8,
          "value": 0.0
        },
        {
          "id": 9,
          "value": 0.0
        }
      ],
      "leftModuleId": 120,
      "rightModuleId": 121,
      "data": {
        "directory": "C:\\Users\\bwiec\\Documents\\Samples\\YouTube",
        "loop": false,
        "hold_envelope": false,
        "playing": false,
        "read_position": 0.0,
        "interpolation_mode": 2,
        "slice": false
      },
      "pos": [
        50,
        0
      ]
    },
    {
      "id": 120,
      "plugin": "LomasModules",
      "version": "1.0.9",
      "model": "AdvancedSampler",
      "params": [
        {
          "id": 0,
          "value": 0.327000022
        },
        {
          "id": 1,
          "value": 1.19399989
        },
        {
          "id": 2,
          "value": 0.0
        },
        {
          "id": 3,
          "value": 1.0
        },
        {
          "id": 4,
          "value": 0.0
        },
        {
          "id": 5,
          "value": 1.0
        },
        {
          "id": 6,
          "value": 0.0
        },
        {
          "id": 7,
          "value": 0.0
        },
        {
          "id": 8,
          "value": 0.0
        },
        {
          "id": 9,
          "value": 0.0
        }
      ],
      "leftModuleId": 118,
      "rightModuleId": 119,
      "data": {
        "directory": "C:\\Users\\bwiec\\Documents\\Samples\\YouTube",
        "loop": false,
        "hold_envelope": false,
        "playing": false,
        "read_position": 0.0,
        "interpolation_mode": 2,
        "slice": false
      },
      "pos": [
        40,
        0
      ]
    },
    {
      "id": 121,
      "plugin": "LomasModules",
      "version": "1.0.9",
      "model": "AdvancedSampler",
      "params": [
        {
          "id": 0,
          "value": 0.577500045
        },
        {
          "id": 1,
          "value": 0.0
        },
        {
          "id": 2,
          "value": 0.0
        },
        {
          "id": 3,
          "value": 1.0
        },
        {
          "id": 4,
          "value": 0.0
        },
        {
          "id": 5,
          "value": 1.0
        },
        {
          "id": 6,
          "value": 0.0
        },
        {
          "id": 7,
          "value": 0.0
        },
        {
          "id": 8,
          "value": 0.0
        },
        {
          "id": 9,
          "value": 0.0
        }
      ],
      "leftModuleId": 119,
      "rightModuleId": 122,
      "data": {
        "directory": "C:\\Users\\bwiec\\Documents\\Samples\\YouTube",
        "loop": false,
        "hold_envelope": false,
        "playing": false,
        "read_position": 0.0,
        "interpolation_mode": 2,
        "slice": false
      },
      "pos": [
        60,
        0
      ]
    },
    {
      "id": 122,
      "plugin": "LomasModules",
      "version": "1.0.9",
      "model": "AdvancedSampler",
      "params": [
        {
          "id": 0,
          "value": 0.836999953
        },
        {
          "id": 1,
          "value": 0.0
        },
        {
          "id": 2,
          "value": 0.0
        },
        {
          "id": 3,
          "value": 1.0
        },
        {
          "id": 4,
          "value": 0.0
        },
        {
          "id": 5,
          "value": 1.0
        },
        {
          "id": 6,
          "value": 0.0
        },
        {
          "id": 7,
          "value": 0.0
        },
        {
          "id": 8,
          "value": 0.0
        },
        {
          "id": 9,
          "value": 0.0
        }
      ],
      "leftModuleId": 121,
      "data": {
        "directory": "C:\\Users\\bwiec\\Documents\\Samples\\YouTube",
        "loop": false,
        "hold_envelope": false,
        "playing": false,
        "read_position": 0.0,
        "interpolation_mode": 2,
        "slice": false
      },
      "pos": [
        70,
        0
      ]
    },
    {
      "id": 123,
      "plugin": "repelzen",
      "version": "1.1.0",
      "model": "rexmix",
      "params": [
        {
          "id": 0,
          "value": 0.0
        },
        {
          "id": 1,
          "value": 0.0
        },
        {
          "id": 2,
          "value": 0.0
        },
        {
          "id": 3,
          "value": 0.0
        },
        {
          "id": 4,
          "value": 0.0
        },
        {
          "id": 5,
          "value": 0.0
        },
        {
          "id": 6,
          "value": 0.0
        },
        {
          "id": 7,
          "value": 0.0
        },
        {
          "id": 8,
          "value": 0.0
        },
        {
          "id": 9,
          "value": 0.0
        },
        {
          "id": 10,
          "value": 0.0
        },
        {
          "id": 11,
          "value": 0.0
        },
        {
          "id": 12,
          "value": 0.0
        },
        {
          "id": 13,
          "value": 0.0
        },
        {
          "id": 14,
          "value": 0.0
        },
        {
          "id": 15,
          "value": 0.0
        },
        {
          "id": 16,
          "value": 0.0
        },
        {
          "id": 17,
          "value": 0.0
        },
        {
          "id": 18,
          "value": 0.0
        },
        {
          "id": 19,
          "value": 0.0
        },
        {
          "id": 20,
          "value": 0.0
        },
        {
          "id": 21,
          "value": 0.0
        },
        {
          "id": 22,
          "value": 0.0
        },
        {
          "id": 23,
          "value": 0.0
        },
        {
          "id": 24,
          "value": 0.0
        },
        {
          "id": 25,
          "value": 0.0
        },
        {
          "id": 26,
          "value": 0.0
        },
        {
          "id": 27,
          "value": 0.0
        },
        {
          "id": 28,
          "value": 0.0
        },
        {
          "id": 29,
          "value": 0.0
        },
        {
          "id": 30,
          "value": 0.0
        },
        {
          "id": 31,
          "value": 0.0
        },
        {
          "id": 32,
          "value": 0.0
        },
        {
          "id": 33,
          "value": 0.0
        },
        {
          "id": 34,
          "value": 0.0
        },
        {
          "id": 35,
          "value": 0.0
        },
        {
          "id": 36,
          "value": 0.0
        },
        {
          "id": 37,
          "value": 0.0
        },
        {
          "id": 38,
          "value": 0.0
        },
        {
          "id": 39,
          "value": 0.0
        },
        {
          "id": 40,
          "value": 0.0
        },
        {
          "id": 41,
          "value": 0.0
        },
        {
          "id": 42,
          "value": 0.0
        },
        {
          "id": 43,
          "value": 0.0
        },
        {
          "id": 44,
          "value": 0.0
        },
        {
          "id": 45,
          "value": 0.0
        },
        {
          "id": 46,
          "value": 0.0
        },
        {
          "id": 47,
          "value": 0.0
        },
        {
          "id": 48,
          "value": 0.0
        },
        {
          "id": 49,
          "value": 0.0
        },
        {
          "id": 50,
          "value": 0.0
        },
        {
          "id": 51,
          "value": 0.0
        }
      ],
      "leftModuleId": 130,
      "rightModuleId": 95,
      "pos": [
        64,
        1
      ]
    },
    {
      "id": 126,
      "plugin": "ImpromptuModular",
      "version": "1.1.5",
      "model": "Clocked-Clkd",
      "params": [
        {
          "id": 0,
          "value": 0.0
        },
        {
          "id": 1,
          "value": 0.0
        },
        {
          "id": 2,
          "value": 0.0
        },
        {
          "id": 3,
          "value": 125.0
        },
        {
          "id": 4,
          "value": 0.0
        },
        {
          "id": 5,
          "value": 0.0
        },
        {
          "id": 6,
          "value": 0.0
        },
        {
          "id": 7,
          "value": 0.0
        },
        {
          "id": 8,
          "value": 0.0
        },
        {
          "id": 9,
          "value": 0.0
        }
      ],
      "leftModuleId": 96,
      "rightModuleId": 128,
      "data": {
        "panelTheme": 0,
        "running": true,
        "bpmDetectionMode": false,
        "resetOnStartStop": 0,
        "ppqn": 4,
        "resetClockOutputsHigh": true,
        "momentaryRunInput": true,
        "displayIndex": 0
      },
      "pos": [
        4,
        1
      ]
    },
    {
      "id": 128,
      "plugin": "AudibleInstruments",
      "version": "1.1.0",
      "model": "Marbles",
      "params": [
        {
          "id": 0,
          "value": 0.0
        },
        {
          "id": 1,
          "value": 0.0
        },
        {
          "id": 2,
          "value": 0.0785000026
        },
        {
          "id": 3,
          "value": -0.0810000375
        },
        {
          "id": 4,
          "value": 0.5
        },
        {
          "id": 5,
          "value": 0.0
        },
        {
          "id": 6,
          "value": 0.0
        },
        {
          "id": 7,
          "value": 0.0
        },
        {
          "id": 8,
          "value": 0.5
        },
        {
          "id": 9,
          "value": 0.5
        },
        {
          "id": 10,
          "value": 0.0
        },
        {
          "id": 11,
          "value": 0.0
        },
        {
          "id": 12,
          "value": 0.0
        },
        {
          "id": 13,
          "value": 0.0
        },
        {
          "id": 14,
          "value": 0.5
        }
      ],
      "leftModuleId": 126,
      "rightModuleId": 129,
      "data": {
        "t_deja_vu": true,
        "x_deja_vu": false,
        "t_mode": 0,
        "x_mode": 0,
        "t_range": 1,
        "x_range": 1,
        "external": false,
        "x_scale": 0,
        "y_divider_index": 8,
        "x_clock_source_internal": 0
      },
      "pos": [
        14,
        1
      ]
    },
    {
      "id": 129,
      "plugin": "AudibleInstruments",
      "version": "1.1.0",
      "model": "Marbles",
      "params": [
        {
          "id": 0,
          "value": 0.0
        },
        {
          "id": 1,
          "value": 0.0
        },
        {
          "id": 2,
          "value": 0.265999854
        },
        {
          "id": 3,
          "value": -0.20099999
        },
        {
          "id": 4,
          "value": 0.74150002
        },
        {
          "id": 5,
          "value": 0.0
        },
        {
          "id": 6,
          "value": 0.0
        },
        {
          "id": 7,
          "value": 0.26700002
        },
        {
          "id": 8,
          "value": 0.732500017
        },
        {
          "id": 9,
          "value": 0.5
        },
        {
          "id": 10,
          "value": 0.0
        },
        {
          "id": 11,
          "value": 0.0
        },
        {
          "id": 12,
          "value": 0.0
        },
        {
          "id": 13,
          "value": 0.280500025
        },
        {
          "id": 14,
          "value": 0.5
        }
      ],
      "leftModuleId": 128,
      "rightModuleId": 130,
      "data": {
        "t_deja_vu": true,
        "x_deja_vu": false,
        "t_mode": 0,
        "x_mode": 0,
        "t_range": 1,
        "x_range": 1,
        "external": false,
        "x_scale": 0,
        "y_divider_index": 8,
        "x_clock_source_internal": 0
      },
      "pos": [
        32,
        1
      ]
    },
    {
      "id": 130,
      "plugin": "AudibleInstruments",
      "version": "1.1.0",
      "model": "Stages",
      "params": [
        {
          "id": 0,
          "value": 0.5
        },
        {
          "id": 1,
          "value": 0.5
        },
        {
          "id": 2,
          "value": 0.5
        },
        {
          "id": 3,
          "value": 0.5
        },
        {
          "id": 4,
          "value": 0.5
        },
        {
          "id": 5,
          "value": 0.5
        },
        {
          "id": 6,
          "value": 0.0
        },
        {
          "id": 7,
          "value": 0.0
        },
        {
          "id": 8,
          "value": 0.0
        },
        {
          "id": 9,
          "value": 0.0
        },
        {
          "id": 10,
          "value": 0.0
        },
        {
          "id": 11,
          "value": 0.0
        },
        {
          "id": 12,
          "value": 0.5
        },
        {
          "id": 13,
          "value": 0.5
        },
        {
          "id": 14,
          "value": 0.5
        },
        {
          "id": 15,
          "value": 0.5
        },
        {
          "id": 16,
          "value": 0.5
        },
        {
          "id": 17,
          "value": 0.5
        }
      ],
      "leftModuleId": 129,
      "rightModuleId": 123,
      "data": {
        "configurations": [
          {
            "type": 0,
            "loop": false
          },
          {
            "type": 0,
            "loop": false
          },
          {
            "type": 0,
            "loop": false
          },
          {
            "type": 0,
            "loop": false
          },
          {
            "type": 0,
            "loop": false
          },
          {
            "type": 0,
            "loop": false
          }
        ]
      },
      "pos": [
        50,
        1
      ]
    }
  ],
  "cables": [
    {
      "id": 68,
      "outputModuleId": 123,
      "outputId": 0,
      "inputModuleId": 87,
      "inputId": 0,
      "color": "#c9b70e"
    },
    {
      "id": 69,
      "outputModuleId": 123,
      "outputId": 1,
      "inputModuleId": 87,
      "inputId": 1,
      "color": "#0c8e15"
    },
    {
      "id": 70,
      "outputModuleId": 122,
      "outputId": 1,
      "inputModuleId": 123,
      "inputId": 9,
      "color": "#c91847"
    },
    {
      "id": 71,
      "outputModuleId": 121,
      "outputId": 1,
      "inputModuleId": 123,
      "inputId": 8,
      "color": "#0986ad"
    },
    {
      "id": 72,
      "outputModuleId": 119,
      "outputId": 1,
      "inputModuleId": 123,
      "inputId": 7,
      "color": "#c9b70e"
    },
    {
      "id": 73,
      "outputModuleId": 120,
      "outputId": 1,
      "inputModuleId": 123,
      "inputId": 6,
      "color": "#0c8e15"
    },
    {
      "id": 74,
      "outputModuleId": 118,
      "outputId": 1,
      "inputModuleId": 123,
      "inputId": 5,
      "color": "#c91847"
    },
    {
      "id": 75,
      "outputModuleId": 117,
      "outputId": 1,
      "inputModuleId": 123,
      "inputId": 4,
      "color": "#0986ad"
    },
    {
      "id": 83,
      "outputModuleId": 128,
      "outputId": 0,
      "inputModuleId": 117,
      "inputId": 8,
      "color": "#0986ad"
    },
    {
      "id": 84,
      "outputModuleId": 128,
      "outputId": 1,
      "inputModuleId": 118,
      "inputId": 8,
      "color": "#c9b70e"
    },
    {
      "id": 85,
      "outputModuleId": 128,
      "outputId": 2,
      "inputModuleId": 120,
      "inputId": 8,
      "color": "#0c8e15"
    },
    {
      "id": 86,
      "outputModuleId": 129,
      "outputId": 0,
      "inputModuleId": 119,
      "inputId": 8,
      "color": "#c91847"
    },
    {
      "id": 87,
      "outputModuleId": 129,
      "outputId": 1,
      "inputModuleId": 122,
      "inputId": 8,
      "color": "#c9b70e"
    }
  ]
}